<?xml version="1.0" encoding="utf-8"?>
<!-- Generator: Adobe Illustrator 16.0.0, SVG Export Plug-In . SVG Version: 6.00 Build 0)  -->
<!DOCTYPE svg PUBLIC "-//W3C//DTD SVG 1.1//EN" "http://www.w3.org/Graphics/SVG/1.1/DTD/svg11.dtd">
<svg version="1.1" id="图层_1" xmlns="http://www.w3.org/2000/svg" xmlns:xlink="http://www.w3.org/1999/xlink" x="0px" y="0px"
	 width="220.167px" height="40.167px" viewBox="0 0 220.167 40.167" enable-background="new 0 0 220.167 40.167"
	 xml:space="preserve">
<path fill="#FFFFFF" d="M73.914,1.706H38.121H2.328c-0.402,0-0.731,0.26-0.731,0.58l1.259,3.167l10.925,30.224l1.111,2.796
	c0,0.319,0.764,0.694,1.169,0.694h22.06H62.08c0.402,0,0.73-0.258,0.73-0.58l1.026-2.91l6.251-17.958h-7.803l-0.012,0.035
	l-24.078,0.123l-0.073,0.175l-1.826,5.735h1.826H60.55l-3.146,8.537c0,0.319-0.328,0.578-0.73,0.578H38.121h-7.598
	c-0.403,0-0.73-0.259-0.73-0.578l7.889-23.458c0-0.203,0.193-0.383,0.438-0.486c0.139-0.058,0.293-0.092,0.438-0.092h27.758
	l0.352-0.045l6.8-0.071h0.059l1.117-5.885C74.644,1.965,74.316,1.706,73.914,1.706z M21.758,32.321c0,0.32-0.327,0.58-0.73,0.58
	H19.52c-0.403,0-0.73-1.618-0.73-1.938L10.843,8.865c0-0.32,0.327-0.579,0.73-0.579h17.884c0.403,0,0.876,0.259,0.876,0.579
	L21.758,32.321z"/>
<rect x="80.399" y="11.794" fill="#FFFFFF" width="3.325" height="15.874"/>
<rect x="89.79" y="11.835" fill="#FFFFFF" width="3.326" height="15.875"/>
<polygon fill="#FFFFFF" points="122.601,7.774 119.275,7.774 119.275,11.835 114.582,11.835 114.582,15.161 119.275,15.161 
	119.275,19.028 114.582,19.028 114.582,20.93 114.582,22.352 114.582,37.058 117.905,37.058 117.905,22.352 119.275,22.352 
	119.275,37.167 122.601,37.167 122.601,22.352 123.972,22.352 123.972,37.101 127.296,37.101 127.296,22.352 127.296,20.973 
	127.296,19.028 122.601,19.028 122.601,15.161 127.296,15.161 127.296,11.835 122.601,11.835 "/>
<path fill="#FFFFFF" d="M145.108,33.843V15.161v-0.522v-2.803h-7.829V7.774V7.521V4.449h-56.88v3.326h4.695v29.326h3.326V7.774h6.15
	v29.369h3.327V7.774h31.024v29.351h3.324v-8.621l9.479,8.664l0.061-0.065v0.065h1.062h2.264h1.792v-0.024v-3.3H145.108z
	 M141.785,32.718l-9.539-8.717V7.774h1.709v7.386h1.445h1.879h4.504v17.558H141.785z"/>
<rect x="161.537" y="8.41" fill="#FFFFFF" width="8.034" height="3.326"/>
<rect x="161.537" y="12.975" fill="#FFFFFF" width="8.034" height="3.326"/>
<polygon fill="#FFFFFF" points="99.295,15.161 104.47,15.161 104.47,18.978 99.295,18.978 99.295,22.303 104.47,22.303 
	104.47,26.428 99.295,26.428 99.295,29.751 104.47,29.751 104.47,33.843 99.295,33.843 99.295,37.167 112.969,37.167 
	112.969,33.843 107.794,33.843 107.794,29.751 112.969,29.751 112.969,26.428 107.794,26.428 107.794,22.303 112.969,22.303 
	112.969,18.978 107.794,18.978 107.794,15.161 112.969,15.161 112.969,11.835 99.295,11.835 "/>
<path fill="#FFFFFF" d="M218.228,33.708h-4.066l-4.377-5.375l5.446-5.834l-0.028-0.027h0.028v-3.326h-6.003v-5.181h6.003v-3.324
	h-6.003V4.352h-3.326v6.289h-6.004v3.324h6.004v5.181h-6.004v3.326h0.029l-0.029,0.027l5.352,5.816l-5.158,5.529h-8.353V25.07
	l5.362-2.555l-1.43-3.002l-3.933,1.873V16.99h5.326v-3.325h-5.326V4.352h-3.323v9.312h-5.326v3.325h5.326v5.981l-5.362,2.555
	l1.43,3.001l3.933-1.873v7.19h-6.99l0,0h-6.736V20.689h6.16v-3.325h-6.16V4.449h-3.326v12.916h-9.828v3.325h9.828v13.153h-11.749
	V22.352v-1.403v-1.92h-4.696v-3.893h4.696V11.81h-4.696V7.774h4.696V4.449H146.9v3.326h4.696v4.035H146.9v3.326h4.696v3.893H146.9
	v3.324v11.492v3.299h3.325V22.352h1.371v14.792h3.323V22.352h1.371v14.724h2.901v0.092h22.235h0.688h19.422l0.002,0.002v-0.002
	h0.033v-0.033l5.938-6.363l5.922,6.439l0.592-0.043h4.205L218.228,33.708L218.228,33.708z M204.394,22.471h6.311l-3.178,3.405
	L204.394,22.471z"/>
</svg>
